{
  "asset": {
    "version": "2.0",
    "generator": "Sketchup glTF Exporter v1.2.6 by Centaur"
  },
  "scene": 0,
  "scenes": [
    {
      "nodes": [
        0
      ]
    }
  ],
  "samplers": [
    {
    }
  ],
  "nodes": [
    {
      "name": "root",
      "children": [
        1
      ]
    },
    {
      "name": "Tomate",
      "children": [
        2
      ]
    },
    {
      "children": [
        3,
        4
      ]
    },
    {
      "name": "Circle_Circle.001",
      "mesh": 0
    },
    {
      "name": "Sphere",
      "mesh": 1
    }
  ],
  "materials": [
    {
      "pbrMetallicRoughness": {
        "baseColorTexture": {
          "index": 0
        },
        "metallicFactor": 0.1,
        "roughnessFactor": 0.9
      },
      "name": "Talo",
      "doubleSided": true
    },
    {
      "pbrMetallicRoughness": {
        "baseColorFactor": [
          0.2176,
          0.2176,
          0.2176,
          1.0
        ],
        "metallicFactor": 0.1,
        "roughnessFactor": 0.9
      },
      "name": "default material",
      "doubleSided": true
    }
  ],
  "images": [
    {
      "bufferView": 0,
      "mimeType": "image/png"
    }
  ],
  "textures": [
    {
      "source": 0,
      "sampler": 0
    }
  ],
  "meshes": [
    {
      "primitives": [
        {
          "attributes": {
            "POSITION": 2,
            "NORMAL": 3,
            "TEXCOORD_0": 4
          },
          "indices": 5,
          "mode": 4,
          "material": 0
        }
      ]
    },
    {
      "primitives": [
        {
          "attributes": {
            "POSITION": 0,
            "NORMAL": 1
          },
          "indices": 6,
          "mode": 4,
          "material": 1
        }
      ]
    }
  ],
  "accessors": [
    {
      "bufferView": 1,
      "componentType": 5126,
      "count": 1986,
      "type": "VEC3",
      "min": [
        -0.0630107996188366,
        1.8735013540549517e-16,
        -0.04083269154295297
      ],
      "max": [
        0.0400372003811634,
        0.06844100000000018,
        0.06221530845704703
      ]
    },
    {
      "bufferView": 2,
      "componentType": 5126,
      "count": 1986,
      "type": "VEC3",
      "min": [
        -0.99999962849026,
        -1.0,
        -0.9999995849285126
      ],
      "max": [
        0.999999475337745,
        0.9999984634748412,
        0.9999995466953961
      ]
    },
    {
      "bufferView": 3,
      "componentType": 5126,
      "count": 1840,
      "type": "VEC3",
      "min": [
        -0.0453237996188366,
        0.06802812045725072,
        -0.018091691542952978
      ],
      "max": [
        0.0223502003811634,
        0.07510912045725071,
        0.04626930845704703
      ]
    },
    {
      "bufferView": 4,
      "componentType": 5126,
      "count": 1840,
      "type": "VEC3",
      "min": [
        -0.9955340461175093,
        0.09229050885820687,
        -0.9956447498293514
      ],
      "max": [
        0.9955340461175092,
        0.9999999997214586,
        0.9957171464289699
      ]
    },
    {
      "bufferView": 5,
      "componentType": 5126,
      "count": 1840,
      "type": "VEC2",
      "min": [
        -173.05636017812083,
        -109.00559943674519
      ],
      "max": [
        111.61392898156552,
        184.88029410995784
      ]
    },
    {
      "bufferView": 7,
      "componentType": 5123,
      "count": 2760,
      "type": "SCALAR"
    },
    {
      "bufferView": 6,
      "componentType": 5123,
      "count": 11904,
      "type": "SCALAR"
    }
  ],
  "bufferViews": [
    {
      "buffer": 0,
      "byteLength": 695
    },
    {
      "buffer": 0,
      "byteOffset": 696,
      "byteLength": 23832,
      "target": 34962,
      "byteStride": 12
    },
    {
      "buffer": 0,
      "byteOffset": 24528,
      "byteLength": 23832,
      "target": 34962,
      "byteStride": 12
    },
    {
      "buffer": 0,
      "byteOffset": 48360,
      "byteLength": 22080,
      "target": 34962,
      "byteStride": 12
    },
    {
      "buffer": 0,
      "byteOffset": 70440,
      "byteLength": 22080,
      "target": 34962,
      "byteStride": 12
    },
    {
      "buffer": 0,
      "byteOffset": 92520,
      "byteLength": 14720,
      "target": 34962,
      "byteStride": 8
    },
    {
      "buffer": 0,
      "byteOffset": 107240,
      "byteLength": 23808,
      "target": 34963
    },
    {
      "buffer": 0,
      "byteOffset": 131048,
      "byteLength": 5520,
      "target": 34963
    }
  ],
  "buffers": [
    {
      "uri": "data:application/octet-stream;base64,",
      "byteLength": 136568
    }
  ]
}